<?xml version="1.0" standalone="no"?>
<!DOCTYPE svg PUBLIC "-//W3C//DTD SVG 20010904//EN"
 "http://www.w3.org/TR/2001/REC-SVG-20010904/DTD/svg10.dtd">
<svg version="1.0" xmlns="http://www.w3.org/2000/svg"
 width="2000.000000pt" height="2000.000000pt" viewBox="0 0 2000.000000 2000.000000"
 preserveAspectRatio="xMidYMid meet">
<metadata>
Created by potrace 1.14, written by Peter Selinger 2001-2017
</metadata>
<g transform="translate(0.000000,2000.000000) scale(0.100000,-0.100000)"
fill="#000000" stroke="none">
<path d="M3580 17825 c-86 -19 -164 -53 -232 -98 -97 -64 -3273 -3246 -3313
-3318 -27 -49 -30 -62 -29 -144 0 -73 5 -99 25 -140 45 -95 137 -165 239 -182
25 -5 3658 -7 8075 -7 l8030 2 77 20 c90 24 142 49 223 107 33 24 782 767
1665 1652 1290 1292 1611 1618 1630 1658 25 51 33 150 19 221 -18 84 -90 171
-179 213 l-55 26 -8060 1 c-6453 2 -8071 -1 -8115 -11z"/>
<path d="M247 11979 c-92 -22 -173 -88 -216 -179 -36 -76 -37 -201 -2 -275 19
-41 327 -353 1655 -1681 1513 -1514 1636 -1635 1706 -1672 41 -23 110 -51 155
-63 l80 -22 8050 0 c6129 0 8060 3 8092 12 141 40 243 190 230 342 -10 127 91
19 -1670 1781 -889 889 -1637 1631 -1662 1648 -65 45 -160 87 -235 104 -58 14
-959 15 -8105 15 -4645 -1 -8056 -5 -8078 -10z"/>
<path d="M3635 6058 c-81 -10 -125 -24 -225 -71 l-85 -40 -1636 -1636 c-1324
-1325 -1640 -1646 -1660 -1686 -34 -72 -33 -197 3 -275 31 -69 87 -125 158
-159 l55 -26 8060 -2 c6826 -1 8070 1 8124 12 73 16 169 59 238 106 26 18 773
759 1660 1646 1268 1268 1619 1625 1640 1666 24 45 27 64 28 142 0 84 -3 94
-35 154 -41 75 -105 131 -182 157 -50 17 -444 18 -8068 18 -4409 1 -8043 -2
-8075 -6z"/>
</g>
</svg>
